<?xml version="1.0" encoding="UTF-8"?> <svg xmlns="http://www.w3.org/2000/svg" viewBox="0 0 36.00 36.00" data-guides="{&quot;vertical&quot;:[],&quot;horizontal&quot;:[]}"><defs></defs><path fill="rgb(255, 255, 255)" class="st0" cx="117" cy="117.5" r="60.6" id="tSvge5a679c4d2" title="Ellipse 1" fill-opacity="1" stroke="none" stroke-opacity="1" d="M17.9998 8.7537C23.1488 8.7537 27.3229 12.9277 27.3229 18.0767C27.3229 23.2257 23.1488 27.3998 17.9998 27.3998C12.8508 27.3998 8.6767 23.2257 8.6767 18.0767C8.6767 12.9277 12.8508 8.7537 17.9998 8.7537Z" style="transform-origin: 18px 18.08px;"></path><path fill="#cfb7a5" stroke="none" fill-opacity="1" stroke-width="1" stroke-opacity="1" class="st1" id="tSvg70294860ea" title="Path 5" d="M17.9998 3.446C9.9383 3.446 3.369 9.9998 3.369 18.0767C3.369 26.1383 9.9229 32.7075 17.9998 32.7075C26.0614 32.7075 32.6306 26.1537 32.6306 18.0767C32.6306 10.0152 26.0614 3.446 17.9998 3.446ZM15.7537 22.5844C15.7537 22.8767 15.6306 23.169 15.4306 23.3844C15.2152 23.5998 14.9383 23.7075 14.6306 23.7075C14.3229 23.7075 14.046 23.5844 13.8306 23.3844C13.6152 23.169 13.5075 22.8921 13.5075 22.5844C13.5075 19.5844 13.5075 16.5844 13.5075 13.5844C13.5075 13.2921 13.6306 12.9998 13.8306 12.7844C14.046 12.569 14.3229 12.4614 14.6306 12.4614C14.9383 12.4614 15.2152 12.5844 15.4306 12.7844C15.646 12.9998 15.7537 13.2767 15.7537 13.5844C15.7537 16.5844 15.7537 19.5844 15.7537 22.5844ZM22.5075 22.5844C22.5075 22.8767 22.3844 23.169 22.1844 23.3844C21.969 23.5998 21.6921 23.7075 21.3844 23.7075C21.0921 23.7075 20.7998 23.5844 20.5844 23.3844C20.369 23.169 20.2614 22.8921 20.2614 22.5844C20.2614 19.5844 20.2614 16.5844 20.2614 13.5844C20.2614 13.2921 20.3844 12.9998 20.5844 12.7844C20.7998 12.569 21.0767 12.4614 21.3844 12.4614C21.6767 12.4614 21.969 12.5844 22.1844 12.7844C22.3998 12.9998 22.5075 13.2767 22.5075 13.5844C22.5075 16.5844 22.5075 19.5844 22.5075 22.5844Z"></path></svg> 