<?xml version="1.0" encoding="UTF-8"?> <svg xmlns="http://www.w3.org/2000/svg" viewBox="0 0 52.00 52.00" data-guides="{&quot;vertical&quot;:[],&quot;horizontal&quot;:[]}"><defs></defs><path fill="#cfb7a5" stroke="none" fill-opacity="1" stroke-width="1" stroke-opacity="1" id="tSvg138c6f47469" title="Path 4" d="M25.9998 4.8748C14.3516 4.8748 4.8748 14.3516 4.8748 25.9998C4.8748 37.648 14.3516 47.1247 25.9998 47.1247C37.648 47.1247 47.1247 37.648 47.1247 25.9998C47.1247 14.3516 37.648 4.8748 25.9998 4.8748ZM33.5936 26.9443C29.719 29.285 25.8444 31.6257 21.9698 33.9665C21.8032 34.0663 21.613 34.1198 21.4188 34.122C21.2246 34.124 21.0334 34.0745 20.8646 33.9783C20.6959 33.882 20.5559 33.7425 20.4588 33.5743C20.3618 33.406 20.3112 33.2152 20.3123 33.0209C20.3123 28.3402 20.3123 23.6595 20.3123 18.9788C20.3112 18.7846 20.3618 18.5936 20.4588 18.4253C20.5559 18.2571 20.6959 18.1177 20.8646 18.0215C21.0334 17.9252 21.2246 17.8756 21.4188 17.8777C21.613 17.8797 21.8032 17.9334 21.9698 18.0333C25.8444 20.374 29.719 22.7147 33.5936 25.0554C33.7556 25.154 33.8896 25.2927 33.9825 25.458C34.0754 25.6236 34.1243 25.81 34.1243 25.9998C34.1243 26.1896 34.0754 26.376 33.9825 26.5416C33.8896 26.7069 33.7556 26.8456 33.5936 26.9443Z"></path></svg> 