<?xml version="1.0" encoding="UTF-8"?> <svg xmlns="http://www.w3.org/2000/svg" id="Layer_2" data-name="Layer 2" viewBox="0 0 184.04 171.53"><defs><style> .cls-1 { fill: #f3ede6; } </style></defs><g id="Layer_1-2" data-name="Layer 1"><g><polygon class="cls-1" points="150.43 116.19 150.43 171.35 150.43 171.53 184.04 171.53 184.04 135.62 150.43 116.19"></polygon><polygon class="cls-1" points="0 171.53 33.61 171.53 33.61 171.35 33.61 116.15 0 135.62 0 171.53"></polygon><path class="cls-1" d="m39.55,97.38v73.97h34.46v-31.36c0-9.84,7.97-17.81,17.81-17.81h.4c9.84,0,17.81,7.97,17.81,17.81v31.36h34.46v-73.97l-52.47-43.52-52.47,43.52Z"></path><polygon class="cls-1" points="16.33 89.68 25.23 100.48 92.02 45.45 158.81 100.48 167.72 89.68 96.18 30.73 96.18 17.61 109.02 17.61 109.02 9.3 96.18 9.3 96.18 0 87.87 0 87.87 9.3 75.02 9.3 75.02 17.61 87.87 17.61 87.87 30.73 16.33 89.68"></polygon></g></g></svg> 