<svg id="Layer_1" data-name="Layer 1" xmlns="http://www.w3.org/2000/svg" viewBox="0 0 100.03 100.25"><defs><style>.cls-1{fill:#393738;}.cls-2{fill:#fff;}</style></defs><path class="cls-1" d="M45.81.21h.06A50.06,50.06,0,0,1,99.81,45.69c.07.83.12,1.65.15,2.48s.05,1.66,0,2.49,0,1.66-.09,2.49-.13,1.66-.22,2.48-.2,1.65-.33,2.47-.29,1.64-.46,2.45-.37,1.62-.58,2.42-.45,1.6-.7,2.39-.52,1.58-.82,2.36-.6,1.54-.93,2.31-.68,1.51-1,2.26-.75,1.48-1.16,2.2-.82,1.44-1.26,2.15S91.51,78,91,78.72s-1,1.35-1.47,2-1,1.3-1.57,1.94-1,1.22-1.6,1.82-1.12,1.17-1.69,1.73-1.18,1.12-1.78,1.66-1.23,1.05-1.86,1.56-1.28,1-1.93,1.47-1.33.93-2,1.37-1.36.86-2.06,1.26-1.41.8-2.13,1.17-1.45.72-2.19,1.05-1.48.65-2.23.95-1.52.57-2.28.83-1.54.5-2.32.72-1.56.42-2.35.6-1.58.35-2.38.49-1.6.26-2.4.37-1.6.18-2.41.24l-.67.08c-12.63,1.25-25.79-3.25-35.53-11.21-.63-.51-1.24-1-1.84-1.6s-1.18-1.11-1.76-1.68-1.13-1.17-1.67-1.77-1.07-1.22-1.59-1.85-1-1.27-1.49-1.92-.95-1.32-1.4-2S7.54,76.66,7.13,76s-.82-1.4-1.21-2.12-.75-1.44-1.09-2.17-.68-1.48-1-2.23-.6-1.5-.88-2.26-.53-1.54-.77-2.31-.46-1.56-.66-2.35S1.14,60.94,1,60.15s-.31-1.6-.43-2.4S.32,56.14.23,55.34.09,53.7,0,52.89,0,51.25,0,50.43,0,48.79,0,48s.09-1.63.17-2.45.17-1.63.29-2.44.25-1.62.4-2.42.34-1.61.53-2.4.41-1.59.64-2.38.49-1.56.76-2.33.56-1.54.87-2.3.64-1.51,1-2.25.71-1.48,1.09-2.21.78-1.44,1.2-2.14.85-1.41,1.3-2.09.91-1.36,1.4-2,1-1.31,1.49-1.95A50.49,50.49,0,0,1,45.81.21Z" transform="translate(0.03 0)"/><path class="cls-2" d="M35.45,35.92c-.89-.18-1.78-.36-2.64-.61a5.85,5.85,0,0,1-3.69-2.74,3.46,3.46,0,0,1-.18-2.78,2.67,2.67,0,0,1,.28-.56,3.25,3.25,0,0,1,.4-.5,2.69,2.69,0,0,1,.5-.39,2.51,2.51,0,0,1,.57-.28,3.12,3.12,0,0,1,2.48.25c2.28,1.2,2.83,4,3.45,6.25,5,.92,29.29,3.49,31.93,5.55,1.94,3.64-.49,11.38-1.44,15.32-3.08.35-17.6,1.2-19.62-.13v-.4a3.42,3.42,0,0,1,.53-.41c.64-.31,15.73-.22,18-.35a25.89,25.89,0,0,0,2.1-7.33c.24-1.64.86-4.39-.17-5.79a11.19,11.19,0,0,0-3.52-1.19c-3.49-.68-7.16-.86-10.7-1.31-5.55-.71-11.08-1.6-16.63-2.34q2.52,9.6,5.42,19.09c.49,1.65,1.11,3.35,1.43,5,2.28.08,4.6-.28,6.9-.24,3.65,0,7.64.69,11.24.37,2-.18,3.71-1.39,5.76-1.33a6.32,6.32,0,0,1,3.23,1l.19.36c-.48.31-6.69.17-7.92.26,2.09,1.44,4.12,3.31,4.53,6A4,4,0,0,1,66.94,70a4.57,4.57,0,0,1-3.11,1.63,5.27,5.27,0,0,1-3.73-1.21,4,4,0,0,1-1.34-2.93,9.66,9.66,0,0,1,1.89-5.68,142.29,142.29,0,0,0-16.13,0c.56,2.68,1.13,6.09-.42,8.56a3.93,3.93,0,0,1-2.63,1.88,5.38,5.38,0,0,1-4.17-.9,4.94,4.94,0,0,1-.44-.36,3.68,3.68,0,0,1-.39-.4,3.83,3.83,0,0,1-.36-.44,4.66,4.66,0,0,1-.3-.47,4.89,4.89,0,0,1-.26-.51c-.07-.17-.14-.34-.2-.52a5.62,5.62,0,0,1-.15-.55c0-.18-.06-.37-.08-.56a4.75,4.75,0,0,1,1.12-3.65c1.6-1.91,4.45-2.94,6.83-3.36-.24-1.16-.63-2.33-.94-3.48Z" transform="translate(0.03 0)"/><path class="cls-1" d="M31.09,29.34h.44a2,2,0,0,1,1.75.82A5.66,5.66,0,0,1,34.82,34l-.4.33a8.83,8.83,0,0,1-3.06-1.21,2.42,2.42,0,0,1-1.11-1.66A2.77,2.77,0,0,1,31.09,29.34Z" transform="translate(0.03 0)"/><path class="cls-1" d="M62,62.14a8.56,8.56,0,0,1,1.12.35,5.46,5.46,0,0,1,2.83,2.9A4.28,4.28,0,0,1,66,68.77a3.57,3.57,0,0,1-2.38,1.88A4.52,4.52,0,0,1,60.8,69.5a3.52,3.52,0,0,1-1.15-2.66C59.62,64.85,60.65,63.49,62,62.14Z" transform="translate(0.03 0)"/><path class="cls-1" d="M43.37,62.06c.17,0,.17,0,.28.15.77,1,.62,4.22.29,5.52a4.54,4.54,0,0,1-2,3,3.94,3.94,0,0,1-3.29,0,4.39,4.39,0,0,1-2.14-2.94,3.43,3.43,0,0,1,.7-2.58C38.69,63.09,41,62.52,43.37,62.06Z" transform="translate(0.03 0)"/></svg>