<svg id="Layer_1" data-name="Layer 1" xmlns="http://www.w3.org/2000/svg" viewBox="0 0 100 100"><defs><style>.cls-1{fill:#393738;}.cls-2{fill:#efe7de;}</style></defs><circle class="cls-1" cx="50" cy="50" r="50"/><path class="cls-2" d="M45,25.68c-.38,1.78.6,3.27,1,4.84a6.21,6.21,0,0,1-3.46.69c.81-1.79,1.55-3.88.69-5.88-4.29-3.88-6.79,3.26-4.15,6.23-5.11,1.21-1.9-6-4.84-6.23-.71,2.82.15,7.9,3.8,7.27s5.88.89,9-1c2.94,2.11,4.57-.09,7.61,1.38s5.73-1.79,5.87-4.49c0-.86.24-2.19-.34-2.77-.86.46.2,2-.69,2.42-.15,1.85-.32,2.85-2.08,3.46-.76.26-2,.73-2.76,0-1.25-1.25,4.33-4.43.77-6.31s-3.81,1.6-3.89,4.58c0,1.4.5,1.14-1,1-.7,0-1.49.14-2.07-.35,5.17-2.75-2.2-10.75-3.46-4.84m-3.8-.35c1.85.46,1.09,5.59-.77,4.92s-1.59-5.5.77-4.92m7.26,0c.06,1.34.08,3.43-1.38,3.81-1-1.37-1.16-4.48,1.38-3.81M53,30.18c-.71-1.69.36-5.29,2-3.77S53.89,29.76,53,30.18Z"/><path class="cls-2" d="M59.53,28.1c.89-.44-.17-2,.69-2.42.58.58.39,1.91.34,2.77C61,25.57,59.81,24.37,59.53,28.1Z"/><path class="cls-2" d="M30.48,52V28.45c-1.27.78,0,4.34-.35,5.88s.21,4.09,0,5.87.2,4.38,0,6.23A27.33,27.33,0,0,0,30.48,52Z"/><path class="cls-2" d="M30.48,52c0,2.55-.16,5.45,0,8s-.43,5.58,0,8-1,5.54,0,7.61c-.39-.92.79-4,.69-5.19,1,.55-.55,3.76,1,3.12-.75-2.3.26-5.16,0-7.61a78.27,78.27,0,0,1,0-8c0-2,0-4.22,0-6.22s0-4.29,0-6.23-.08-4.45,0-6.22-.18-4.81,0-6.23.23-5.72-1.73-4.49Z"/><path class="cls-2" d="M65.41,39.51c-1.56-2.6,1.49-8.46-1.73-9.68C64.1,34.58,65,40.58,62.4,44.46S59,51.68,56.52,55.53s-4.37,8.6-2.87,13.38c4.23-.68,6.8-3.48,8.54-7s3.72-6.46,5.66-9.9,3.49-6.52,5.59-10,4.91-7.09-.4-9.09S67.53,36,65.41,39.51M72,33.63c2.71.58,4.32,4,1.14,3.36S68,32.8,72,33.63m1.73,5.19c-2.51,5-5.25,10.5-8.28,15.25S60.77,65.35,55,67.18c-.63-.89-.23-2.08-.34-3.11,1.22-.21,1.83,1.33,3.11,1-.65-2.29-3.9-2.66-2.16-4.93s1.73-3.8,3.12-5.87,2.14-4,3.29-6,2.21-3.69,3.27-5.73a59.7,59.7,0,0,1,3.2-6.14C70.44,36.75,72,38,73.71,38.82Z"/><path class="cls-2" d="M49.15,43c1-.09,2.28-.34,3.46-.34,1.36-.42,4.49,1,4.5-1-3,.29-7.1-.39-10,0s-7.95-1.49-8.3,1.73C42.29,43.21,45.6,43,49.15,43Z"/><path class="cls-2" d="M49.15,43c1.18,0,2.51-.25,3.46-.34C51.43,42.63,50.1,42.88,49.15,43Z"/><path class="cls-2" d="M39.47,46.78a17.6,17.6,0,0,0,2.76.34c1.49-.19,4.54.83,3.81-1.73H38.78C38.51,46.34,39,46.44,39.47,46.78Z"/><path class="cls-2" d="M42.23,47.12a17.6,17.6,0,0,1-2.76-.34A5,5,0,0,0,42.23,47.12Z"/><path class="cls-2" d="M38.43,57.5c4.67-.23,9.77.45,14.18-.35a21.69,21.69,0,0,0-6.92-.34c-2.11.38-5.32-.86-7.26,0A1,1,0,0,0,38.43,57.5Z"/><path class="cls-2" d="M64,60.61c-.6,1.51.51,3.62,0,5.19s.73,4.06,0,5.53,1.48,3.77,1,4.5V59.92C64.49,59.79,64.28,60.23,64,60.61Z"/><path class="cls-2" d="M39.47,61.65c1.86-.79,5.89,1.9,5.88-1H38.08C38,61.28,39.09,61.56,39.47,61.65Z"/><path class="cls-2" d="M36.7,74.44H32.21c-.14-.2.17-.86,0-1-1.59.64,0-2.57-1-3.12.1,1.2-1.08,4.27-.69,5.19.84,1.71,4.71.4,6.57.69s5.21-.08,7.26,0,4.88.11,6.92,0,5.44.34,7.26,0,5.62,1,6.57-.34c.44-.73-1.77-3-1-4.5s-.5-4,0-5.53-.6-3.68,0-5.19c-1.25,1.89,0,5.57-.34,8s.91,6.31-2.42,5.88-5.29.19-8.3,0-5.43.08-8.3,0S39.52,74.44,36.7,74.44Z"/><path class="cls-2" d="M45,25.68c-.38,1.78.6,3.27,1,4.84a6.21,6.21,0,0,1-3.46.69c.81-1.79,1.55-3.88.69-5.88-4.29-3.88-6.79,3.26-4.15,6.23-5.11,1.21-1.9-6-4.84-6.23-.71,2.82.15,7.9,3.8,7.27s5.88.89,9-1c2.94,2.11,4.57-.09,7.61,1.38s5.73-1.79,5.87-4.49c0-.86.24-2.19-.34-2.77-.86.46.2,2-.69,2.42-.15,1.85-.32,2.85-2.08,3.46-.76.26-2,.73-2.76,0-1.25-1.25,4.33-4.43.77-6.31s-3.81,1.6-3.89,4.58c0,1.4.5,1.14-1,1-.7,0-1.49.14-2.07-.35,5.17-2.75-2.2-10.75-3.46-4.84m-3.8-.35c1.85.46,1.09,5.59-.77,4.92s-1.59-5.5.77-4.92m7.26,0c.06,1.34.08,3.43-1.38,3.81-1-1.37-1.16-4.48,1.38-3.81M53,30.18c-.71-1.69.36-5.29,2-3.77S53.89,29.76,53,30.18Z"/><path class="cls-2" d="M59.53,28.1c.89-.44-.17-2,.69-2.42.58.58.39,1.91.34,2.77C61,25.57,59.81,24.37,59.53,28.1Z"/><path class="cls-2" d="M30.48,52V28.45c-1.27.78,0,4.34-.35,5.88s.21,4.09,0,5.87.2,4.38,0,6.23A27.33,27.33,0,0,0,30.48,52Z"/><path class="cls-2" d="M30.48,52c0,2.55-.16,5.45,0,8s-.43,5.58,0,8-1,5.54,0,7.61c-.39-.92.79-4,.69-5.19,1,.55-.55,3.76,1,3.12-.75-2.3.26-5.16,0-7.61a78.27,78.27,0,0,1,0-8c0-2,0-4.22,0-6.22s0-4.29,0-6.23-.08-4.45,0-6.22-.18-4.81,0-6.23.23-5.72-1.73-4.49Z"/><path class="cls-2" d="M65.41,39.51c-1.56-2.6,1.49-8.46-1.73-9.68C64.1,34.58,65,40.58,62.4,44.46S59,51.68,56.52,55.53s-4.37,8.6-2.87,13.38c4.23-.68,6.8-3.48,8.54-7s3.72-6.46,5.66-9.9,3.49-6.52,5.59-10,4.91-7.09-.4-9.09S67.53,36,65.41,39.51M72,33.63c2.71.58,4.32,4,1.14,3.36S68,32.8,72,33.63m1.73,5.19c-2.51,5-5.25,10.5-8.28,15.25S60.77,65.35,55,67.18c-.63-.89-.23-2.08-.34-3.11,1.22-.21,1.83,1.33,3.11,1-.65-2.29-3.9-2.66-2.16-4.93s1.73-3.8,3.12-5.87,2.14-4,3.29-6,2.21-3.69,3.27-5.73a59.7,59.7,0,0,1,3.2-6.14C70.44,36.75,72,38,73.71,38.82Z"/><path class="cls-2" d="M49.15,43c1-.09,2.28-.34,3.46-.34,1.36-.42,4.49,1,4.5-1-3,.29-7.1-.39-10,0s-7.95-1.49-8.3,1.73C42.29,43.21,45.6,43,49.15,43Z"/><path class="cls-2" d="M49.15,43c1.18,0,2.51-.25,3.46-.34C51.43,42.63,50.1,42.88,49.15,43Z"/><path class="cls-2" d="M39.47,46.78a17.6,17.6,0,0,0,2.76.34c1.49-.19,4.54.83,3.81-1.73H38.78C38.51,46.34,39,46.44,39.47,46.78Z"/><path class="cls-2" d="M42.23,47.12a17.6,17.6,0,0,1-2.76-.34A5,5,0,0,0,42.23,47.12Z"/><path class="cls-2" d="M38.43,57.5c4.67-.23,9.77.45,14.18-.35a21.69,21.69,0,0,0-6.92-.34c-2.11.38-5.32-.86-7.26,0A1,1,0,0,0,38.43,57.5Z"/><path class="cls-2" d="M64,60.61c-.6,1.51.51,3.62,0,5.19s.73,4.06,0,5.53,1.48,3.77,1,4.5V59.92C64.49,59.79,64.28,60.23,64,60.61Z"/><path class="cls-2" d="M39.47,61.65c1.86-.79,5.89,1.9,5.88-1H38.08C38,61.28,39.09,61.56,39.47,61.65Z"/><path class="cls-2" d="M36.7,74.44H32.21c-.14-.2.17-.86,0-1-1.59.64,0-2.57-1-3.12.1,1.2-1.08,4.27-.69,5.19.84,1.71,4.71.4,6.57.69s5.21-.08,7.26,0,4.88.11,6.92,0,5.44.34,7.26,0,5.62,1,6.57-.34c.44-.73-1.77-3-1-4.5s-.5-4,0-5.53-.6-3.68,0-5.19c-1.25,1.89,0,5.57-.34,8s.91,6.31-2.42,5.88-5.29.19-8.3,0-5.43.08-8.3,0S39.52,74.44,36.7,74.44Z"/></svg>