<svg id="Layer_1" data-name="Layer 1" xmlns="http://www.w3.org/2000/svg" viewBox="0 0 100 100"><defs><style>.cls-1{fill:#393738;}.cls-2{fill:#fff;}.cls-3{fill:#efe7de;}</style></defs><path class="cls-1" d="M47.41.32C59-.84,72.34,3.78,81.26,11c.65.52,1.28,1.05,1.9,1.6s1.22,1.1,1.81,1.68,1.17,1.17,1.73,1.77,1.11,1.23,1.64,1.86,1,1.28,1.55,1.94,1,1.32,1.44,2,.92,1.37,1.35,2.08.84,1.42,1.24,2.14.77,1.46,1.13,2.2.7,1.5,1,2.26.63,1.53.91,2.31.55,1.55.79,2.34.47,1.59.67,2.39.39,1.6.56,2.41.31,1.62.43,2.44.23,1.63.32,2.46.14,1.62.18,2.43S100,49,100,49.78s0,1.63,0,2.45-.1,1.62-.17,2.43-.18,1.62-.29,2.43-.26,1.61-.41,2.41-.33,1.59-.53,2.38-.41,1.58-.64,2.36-.49,1.56-.76,2.32-.56,1.53-.87,2.29-.63,1.5-1,2.23-.71,1.47-1.09,2.19S93.43,74.7,93,75.4s-.85,1.39-1.3,2.07-.91,1.35-1.39,2-1,1.3-1.5,1.93c-9.08,11.06-20.89,16.72-35,18.12C40.5,99.87,28.74,96.77,18.35,88c-.62-.52-1.23-1.06-1.82-1.61s-1.18-1.12-1.75-1.7-1.12-1.17-1.66-1.78-1.06-1.23-1.57-1.86-1-1.28-1.48-1.94-.94-1.33-1.38-2-.87-1.37-1.28-2.07-.8-1.41-1.17-2.13-.73-1.45-1.07-2.19-.66-1.49-1-2.24S3.63,67,3.37,66.21s-.51-1.54-.74-2.32S2.2,62.33,2,61.53s-.36-1.58-.5-2.38-.28-1.6-.39-2.4S.94,55.13.87,54.32.75,52.66.72,51.83s0-1.66,0-2.5,0-1.66.09-2.49S.9,45.18,1,44.35s.21-1.65.34-2.48.29-1.64.47-2.45S2.18,37.8,2.4,37s.45-1.6.7-2.39.54-1.58.83-2.36.61-1.55.95-2.31.68-1.52,1.06-2.26.76-1.49,1.17-2.21S7.94,24,8.39,23.31s.9-1.39,1.38-2.07,1-1.35,1.49-2,1-1.3,1.59-1.93C21.59,7.06,34.13,1.39,47.41.32Z"/><path class="cls-2" d="M55.27,70.49a2.17,2.17,0,0,1-.07.24,3.47,3.47,0,0,1-.69,1.13c.43-.07.85-.16,1.27-.26a6.64,6.64,0,0,1-.76.74,1.7,1.7,0,0,1-1.46.32c-.64-.15-1-.85-1.36-1.36a2,2,0,0,1,1.49.22A6.23,6.23,0,0,0,55.27,70.49Z"/><path class="cls-3" d="M37.42,65.73l.37.34v.56c-.71,1.46-2.34,2.54-3.59,3.52l-.44-.22C33.8,68.85,36.6,66.53,37.42,65.73Z"/><path class="cls-3" d="M31.7,58.11l.57.15.19.34c-.42,1.39-3.12,3-4.29,3.86l-.4.13-.29-.27C28.19,60.67,30.22,59.08,31.7,58.11Z"/><path class="cls-3" d="M35.16,48l1.07.77.07.11c-1.12,1.26-1.66,3.69-2.2,5.32l-1-.57C33.75,51.74,34.32,49.84,35.16,48Z"/><path class="cls-3" d="M35.68,35.31l.69.69a68.3,68.3,0,0,1-7,5A8.11,8.11,0,0,0,29,40,69.89,69.89,0,0,1,35.68,35.31Z"/><path class="cls-2" d="M52.2,71.3c-1-1.9-2.77-4.67-3-6.8l.23-.27c1.11.39,2,2.75,2.48,3.81a17.83,17.83,0,0,0,1.78,3.48A2,2,0,0,0,52.2,71.3Z"/><path class="cls-2" d="M38.83,33.37a20.1,20.1,0,0,1,4.7,1.17l.22.62,0-.51.45.36c-.84.51-2.34.2-3.25,0-.76-.19-1.53-.32-2.29-.47L36.37,36l-.69-.69A27.45,27.45,0,0,1,38.83,33.37Z"/><path class="cls-2" d="M50.82,50.07a5.21,5.21,0,0,1-2.24-3.21,5.4,5.4,0,0,1-.11-.58,5.87,5.87,0,0,1,0-.59c0-.2,0-.4,0-.6a5.73,5.73,0,0,1,.07-.58,5.43,5.43,0,0,1,.13-.58,3.81,3.81,0,0,1,.19-.57q.1-.27.24-.54a5.29,5.29,0,0,1,.29-.52,5.87,5.87,0,0,1,4-2.61l-1.84,1.25.19-.07A4.08,4.08,0,0,1,54,40.73a5.77,5.77,0,0,0-4,2.09,4.55,4.55,0,0,0-.34,3.6c.29,1.33,1,1.69,1.63,2.74l-.15,0a1.94,1.94,0,0,1-1.28-.65C50.2,49,50.52,49.53,50.82,50.07Z"/><path class="cls-3" d="M34.44,61.89a2,2,0,0,1,.79.29l.13.49c-1,2-6.34,5.65-8.24,7.43l-.43.08-.27-.24C26.88,68.3,32.89,63.19,34.44,61.89Z"/><path class="cls-2" d="M35.16,48c-1.74-1.54-3.91-2.54-5.71-4A3.38,3.38,0,0,1,28,41.7,3.45,3.45,0,0,1,29,40a8.11,8.11,0,0,1,.36.93l-.08.65c1.51,1.86,4.34,3.45,6.31,4.88h.33l.34-.38.38.52.64-.26c-.31.69-.44.77-.25,1.54a2,2,0,0,1-.79.89Z"/><path class="cls-3" d="M53.33,39.69a6.37,6.37,0,0,1,4.29,1.19,6,6,0,0,1,2.17,4,5.85,5.85,0,0,1-1.21,4.29,5.67,5.67,0,0,1-4.16,1.94,4.89,4.89,0,0,1-3.6-1c-.3-.54-.62-1.06-1-1.58a1.94,1.94,0,0,0,1.28.65l.15,0a5.79,5.79,0,0,0,4.51.09,2,2,0,0,0,.36-.19,2,2,0,0,0,.34-.22l.32-.26.29-.29a3.76,3.76,0,0,0,.25-.31,2.56,2.56,0,0,0,.22-.35,3,3,0,0,0,.19-.36c.06-.12.1-.25.15-.38a4.57,4.57,0,0,0-.31-3.46,5.55,5.55,0,0,0-3.6-2.7,4.08,4.08,0,0,0-2.32.14l-.19.07Z"/><path class="cls-3" d="M37,47.89c4,2.34,10.28,11.4,13.17,15.25a73.93,73.93,0,0,1-8.06,2.56l-2-2.54c-2-1.55-4.94-5.33-6.57-7.4a2.89,2.89,0,0,1-.44-2.12l1,.57a13,13,0,0,0,.52,1.48c2.62,1.89,5.35,5.37,7.2,8,1.42.52,4.41-.79,5.89-1.26-3.46-5.2-7.41-9-11.41-13.57l-.07-.11A2,2,0,0,0,37,47.89Z"/><path class="cls-1" d="M54,40.73a5.55,5.55,0,0,1,3.6,2.7,4.57,4.57,0,0,1,.31,3.46c0,.13-.09.26-.15.38a3,3,0,0,1-.19.36,2.56,2.56,0,0,1-.22.35,3.76,3.76,0,0,1-.25.31l-.29.29-.32.26a2,2,0,0,1-.34.22,2,2,0,0,1-.36.19,5.79,5.79,0,0,1-4.51-.09c-.66-1-1.34-1.41-1.63-2.74a4.55,4.55,0,0,1,.34-3.6A5.77,5.77,0,0,1,54,40.73Z"/><path class="cls-1" d="M34.1,54.21c.54-1.63,1.08-4.06,2.2-5.32,4,4.6,8,8.37,11.41,13.57-1.48.47-4.47,1.78-5.89,1.26-1.85-2.66-4.58-6.14-7.2-8A13,13,0,0,1,34.1,54.21Z"/><path class="cls-3" d="M36.25,46.09C39.52,38.7,48.69,31.81,56.14,29c4.45-1.69,12.21-2.69,16.67-.76a1.82,1.82,0,0,1,1.08,1c1.45,3.55-1.75,13.52-3.46,17.06A40.21,40.21,0,0,1,63.29,56c.16,2,.33,3.89.41,5.84-1.13,2.15-6,8.47-7.92,9.78-.42.1-.84.19-1.27.26a3.47,3.47,0,0,0,.69-1.13,2.17,2.17,0,0,0,.07-.24c1.82-3,5.09-5.63,7-8.84-.12-1.43-.38-2.86-.59-4.28-2.47,1.75-6.31,4.78-9.34,5.21a1.14,1.14,0,0,1-1.14-.36l0-.46c.9-1.08,4.91-2.54,6.45-3.47a24.89,24.89,0,0,0,5.51-4.51A36.14,36.14,0,0,0,72,36.4a18.42,18.42,0,0,0,.61-4.94,2.16,2.16,0,0,0-.76-1.79c-2.21-1.61-8.71-.89-11.31-.4-9.92,1.87-17.8,9-23.28,17.08l-.64.26Z"/></svg>