<svg id="Layer_1" data-name="Layer 1" xmlns="http://www.w3.org/2000/svg" viewBox="0 0 995.13 404.48"><defs><style>.cls-1{fill:#ef0023;}</style></defs><path class="cls-1" d="M607.05,45.48C449.69-25.68,244.92,29.7,119.33,106,57.85,143.32,10,192.89,12.69,249.15c2.64,55.52,57.28,95.6,134.07,116.54,88.35,24.08,189,28.08,283.73,25.57,95.08-2.52,191.6-10.43,282.54-29.07,83-17,170.16-44.23,226.17-88.76,52.17-41.47,59.59-94.51,9.38-138.38-59.71-52.16-166-67.4-260.22-74.58-116-8.85-234.17-2.45-346.14,19.11-4.65.89-2.7,5.54,2,4.71A1386.93,1386.93,0,0,1,624.56,63.4c87.62,2.53,186.15,10.53,261.2,42.25,72.58,30.68,112.39,88.34,69.61,140.68-39.28,48-120.8,78.72-196.22,98.43-80.23,21-166.21,31.36-252,36.79-92.81,5.88-187.85,7-279.4-6.05-79.11-11.3-165-34.64-194.75-87.62C2.79,234.27,34.93,176.38,89,134.4,206.19,43.5,435.81-26.69,604.24,48.6,607.24,49.92,610,46.81,607.05,45.48Z"/></svg>