<?xml version="1.0" encoding="utf-8"?>
<!-- Generator: Adobe Illustrator 26.0.1, SVG Export Plug-In . SVG Version: 6.00 Build 0)  -->
<svg version="1.1" id="Layer_1" xmlns="http://www.w3.org/2000/svg" xmlns:xlink="http://www.w3.org/1999/xlink" x="0px" y="0px"
	 viewBox="0 0 208.7 181.4" style="enable-background:new 0 0 208.7 181.4;" xml:space="preserve">
<style type="text/css">
	.st0{fill:#E7CDAC;}
</style>
<path class="st0" d="M181.5,12.4c-16-11.4-37-13-54.6-4.3c-9.1,4.7-16.8,11.6-22.3,20.2C92.7,9.8,71.2-0.7,49.2,3.4
	C28.2,7.2,11.7,23.7,5.4,43.7c-5.8,18.6-2.5,39.5,5.7,56.9c7.4,15.6,18.6,29,31.4,40.5c17.6,15.7,37.7,28.3,59.5,37.4
	c1.3,0.6,2.9,0.5,4.2-0.1c2.7-1.1,5.3-2.3,7.9-3.5c11.1-5.3,21.8-11.5,32-18.4c27.7-19,53.5-46,59.1-80.4c0.7-4.5,1.1-9.1,1.1-13.7
	C206.1,42.9,197.5,23.9,181.5,12.4z"/>
</svg>
