<svg id="Layer_1" data-name="Layer 1" xmlns="http://www.w3.org/2000/svg" viewBox="0 0 233.34 207.36"><defs><style>.cls-1{fill:#ee312d;}</style></defs><path class="cls-1" d="M117.12,50.4c7.95-21,23-34.7,42.09-44.2C168.06,1.79,177.57-.42,187.44,1c10.61,1.54,19.19,7.19,26.4,15.09,11.67,12.87,18.33,28,19.27,45.59a105.6,105.6,0,0,1-1.81,27.6c-3.52,16.69-13.05,37-27.12,46a103.54,103.54,0,0,1-20.32,9.84A206.42,206.42,0,0,0,162,154.46a88.66,88.66,0,0,0-20.26,14.6c-2.42,2.12-4.36,7.73-5.73,10.64-4.61,10.05-7.36,9.86-8.11,20.89,0,.4.15.8.12,1.2-.23,3-3.06,5.85-5.9,5.54-3.2-.35-3.47-3-3.36-5.45.3-7.56-8.49-9.75-10.29-17-2.92-11.73-9.7-13.49-19.75-19.81-12-7.54-18-18.13-30.4-24.76C38.71,129.91,21.73,109.39,8.84,91A45.19,45.19,0,0,1,.46,63.85a64.44,64.44,0,0,1,7-28.41C15.86,19.19,30.13,11.8,47.09,9c24.23-4.07,43.49,4.75,58.22,24.29,3,4,5.34,8.43,8.09,12.63C114.35,47.34,114.7,49.27,117.12,50.4Zm-56.4-.73-1.2-.5L53.41,59.43C46.45,71.09,40.12,83.14,31.85,94,27.19,100,27.19,100,33.11,105a1.77,1.77,0,0,0,2.21.47C41.84,86.09,52.27,68.35,60.72,49.67Zm105.57,84.17c5-1.5,10.51-2.13,10.58-9.43,0-2.77,2-5.18,3.2-7.72,5.67-12.42,13.15-23.84,19-36.16a85.74,85.74,0,0,0,6.09-16C191.79,87.39,180.73,111.56,166.29,133.84Zm34.87-36.53a128.47,128.47,0,0,0,13.32-20.49c2.23-4.27,4.35-8.53,8.31-11.52a3.29,3.29,0,0,0,1.64-3c-.36-4.62-.6-9.28-3.06-14.53-6,17.49-12.36,33.81-20.23,49.53ZM75.52,60.51c-.94.76-1.36.94-1.53,1.26-9.44,17-17.86,34.52-28.42,50.84-.94,1.47-.81,2.65.65,3.55,1.12.7,2,2,3.89,1.54C56.37,98,68,80.62,75.52,60.51ZM197.08,22a499.18,499.18,0,0,1-23.76,67.62C185.13,68.47,194.41,46.41,197.07,22ZM133.23,44.36C126,54.57,110.69,90.7,110,98.74A477,477,0,0,0,133.23,44.36Zm-50.61,92c1.56-10,4.76-19.4,8.28-30.08-2.79,2.19-3.43,4.16-4.42,5.84-3.2,5.33-6.2,10.76-9.41,16.07-3,5-3,4.93,2.24,7.57C80.16,136.18,81,136.92,82.62,136.34Zm-14.08-118c-3-.27-6.17-3.11-7.82,1.46C57.61,28.48,53.47,36.66,49.77,45c-.36.84-1.56,1.78-.1,3.2C55.53,38,61.88,28.21,68.54,18.38Zm137.8,3.36c-.81,9.8-3.39,19-5.34,28.28,2.28-1.73,3.06-4.26,4.18-6.54,1.77-3.59,3.2-7.35,5.18-10.84,2.43-4.34,2.61-4.27-.38-8.06A6.26,6.26,0,0,0,206.34,21.74Zm-44.45.14c-7.81,16.41-12.59,34-19.06,51C151.15,56.61,157,39.42,161.89,21.88ZM36.76,50.67c-7.4,11-12.29,23.46-18.81,35.05-.76,1.38-.49,2.72,1.63,3.55C25.15,76.37,30.94,63.56,36.76,50.67Zm69,77.12,1,.73A301.65,301.65,0,0,0,126.21,86Zm-46-3.62c4.27,3.48,4.17,3.46,5.69-.9,1.23-3.6,2.64-7.14,4-10.67,1.24-3.2,3-6.29,3.1-10ZM32.24,37.4l.68.33L45.27,19.3l-.76-.95c-1.92,1.16-4.73.51-5.86,3.14C36.38,26.73,34.36,32.09,32.24,37.4Zm63.31-1.55c-3.4,6.29-5.91,13.69-5.86,18,2.55-3.81,4.78-7.07,7-10.38C99.28,39.55,99.26,39.53,95.55,35.85Zm100.32,85.2a17.1,17.1,0,0,0,6.81-3.6c3.36-2.52,3.33-2.57,1.21-7.35ZM77.21,36l.7.37c2.13-3,4.36-6,6.58-8.88,1.07-1.43.24-2.14-.86-2.82s-2.14-1.06-2.78.74C79.67,28.92,78.42,32.44,77.21,36ZM15.94,56.76c-5,6.15-6.4,10.14-5,14.43C12.74,66,14.29,61.33,15.94,56.76Zm94.9,83.17c-2.23,2.76-4.44,5.55-6.69,8.3-.69.85-1.06,1.59-.05,2.5a1.34,1.34,0,0,0,2.33-.51c1.49-3.38,3.92-6.32,4.32-10.31ZM150.29,24.77c1.07-2.28,2.25-4.16,2.54-6.61C148.9,20,148.9,20,150.29,24.79Zm-33,131.81c-1.47,1.2-4.08,1.67-3.57,4.42,0,.16.29.41.4.39C116.63,161,116.33,158.37,117.24,156.58ZM17.16,37.48a9.36,9.36,0,0,0-3,5.73C16.13,41.15,17.08,39.57,17.16,37.48ZM130.5,78.39c-.95.68-2.59,1.48-1.59,3.2C129.49,80.53,130,79.46,130.5,78.39ZM106.86,54a4.63,4.63,0,0,0-.47-.88c-.86.28-.77,1.22-1.16,1.85s-.14.85.35.73A1.77,1.77,0,0,0,106.86,54Zm63.51-42a15.18,15.18,0,0,0-.24,1.9c0,.26.27.51.42.76a14,14,0,0,0,.28-1.7C170.84,12.67,170.55,12.4,170.37,12ZM121.64,180.63a11.56,11.56,0,0,0,1.14-1.47c.29-.52.41-1.18-.39-1.33a.93.93,0,0,0-1.13.67,1.33,1.33,0,0,0,0,.28,8.39,8.39,0,0,0,.41,1.85Z"/></svg>