<svg id="Layer_1" data-name="Layer 1" xmlns="http://www.w3.org/2000/svg" viewBox="0 0 563.62 489.9"><defs><style>.cls-1{fill:#698573;}</style></defs><path class="cls-1" d="M495.54,31.64A146.81,146.81,0,0,0,345.39,19.71c-25.2,12.57-45.83,32.18-61.31,55.48C251.15,24.54,192-4.44,131.39,6.8,73.84,17.48,28.3,62.68,11.1,117.74c-16,51.33-6.95,108.71,15.65,156.67C47,317.46,78,354.36,113.23,386,161,428.77,217.67,464.11,277,488.79c4.06,1.69,7.42,1.34,11.48-.34,7.31-3,14.51-6.32,21.65-9.72A652.33,652.33,0,0,0,398,428c76.33-52.35,147.25-126.53,162.6-221.24a239.39,239.39,0,0,0,3-37.62C563.33,115.67,539.54,63.2,495.54,31.64Z"/></svg>