<svg id="Layer_1" data-name="Layer 1" xmlns="http://www.w3.org/2000/svg" viewBox="0 0 416.06 404.48"><path d="M258.56,25.78C223.82,4.18,180.2,5,143.69,22c-39.21,18.25-69.31,52.87-90.31,90C11.47,186,6.79,286.23,71.29,349.45c58.9,57.74,153.89,58.05,223.14,20.11,67.72-37.12,109-107.91,105.94-185.3-1.51-37.79-12.83-75.42-33.28-107.31C346.15,44.3,314.47,13.44,274.61,7.89c-22.14-3.08-44.59,0-66.51,3.4-23.38,3.58-46.74,8.45-68.66,17.56-38.5,16-67.18,46.17-87.07,82.28C29.7,152.29,17,199.2,12.76,245.85c-1.88,20.89-3.52,43.84,4.39,63.77C24.46,328,39.33,342,55,353.43c66.52,48.49,160.4,59.21,234.75,22.56,68.45-33.72,115.64-108.29,115.1-184.82C404.32,116,354,46.54,284.24,19.52A164.64,164.64,0,0,0,230.53,8.64c-3.17-.12-3.14,4.75,0,4.91C303,17.42,367.69,69.4,390.66,137.79c23.43,69.78-2.38,148.31-54.34,198.36C280.19,390.23,196.65,404,123.47,380.91c-35.34-11.15-79.56-32.74-97.66-67-10.88-20.59-9-45.6-7-68.06a356.8,356.8,0,0,1,12.84-68.1C42.89,139.06,60.34,100.59,88.33,71c29.52-31.18,68.92-45,110.35-52.24,21.66-3.77,44.19-7.5,66.25-6,23.29,1.64,43.25,10.7,61,25.68,27.89,23.57,48,55.81,58.85,90.52,21.64,69,6.72,146-44.4,198.15-50.95,52-129.38,75.94-199.84,55.1C55.19,357,14.41,269.18,31.25,185,46.78,107.41,108.91,17.4,194.88,12.78A108.37,108.37,0,0,1,257.25,28a1.3,1.3,0,1,0,1.31-2.25Z"/></svg>