<?xml version="1.0" encoding="UTF-8"?> <svg xmlns="http://www.w3.org/2000/svg" xmlns:xlink="http://www.w3.org/1999/xlink" xmlns:svgjs="http://svgjs.dev/svgjs" version="1.1" width="1000" height="1000"><g clip-path="url(#SvgjsClipPath1185)"><rect width="1000" height="1000" fill="#ffffff"></rect><g transform="matrix(8.333333333333334,0,0,8.333333333333334,-5.684341886080802e-14,-5.684341886080802e-14)"><svg xmlns="http://www.w3.org/2000/svg" xmlns:xlink="http://www.w3.org/1999/xlink" xmlns:svgjs="http://svgjs.dev/svgjs" version="1.1" width="120" height="120"><svg xmlns="http://www.w3.org/2000/svg" width="120" height="120" viewBox="0 0 120 120" fill="none"><path d="M60.7836 45.1699C53.5275 45.1699 47.7318 47.6554 43.3873 52.6173C39.126 57.5052 37 63.696 37 71.1896C37 79.7089 39.3663 86.1307 44.099 90.4642C48.9149 94.7238 54.6274 96.849 61.2551 96.849C67.8827 96.849 73.0868 94.8347 77.5792 90.8153C79.9455 88.6901 81.9606 86.0475 83.6152 82.8874L76.5162 78.9882C75.333 81.5938 73.6414 83.8391 71.4322 85.7333C68.5944 88.0988 65.239 89.2815 61.3752 89.2815C57.04 89.2815 53.3703 87.7476 50.3754 84.6707C47.3805 81.5938 45.8368 77.5744 45.7629 72.6033H83.9757C84.216 65.0358 82.6724 58.882 79.3632 54.1511C75.1851 48.1544 68.9919 45.1606 60.7836 45.1606V45.1699ZM46.3452 65.5163C46.9738 61.8111 48.6284 58.7711 51.3183 56.4057C54.0821 53.9571 57.2341 52.7374 60.7836 52.7374C64.3332 52.7374 67.5314 53.9201 70.1289 56.2856C72.8095 58.5678 74.5103 61.6447 75.2128 65.507H46.3452V65.5163Z" fill="black"></path><path d="M50.9295 31.5008L70.1283 23L70.0729 31.3437L50.874 39.8722L50.9295 31.5008Z" fill="black"></path></svg></svg></g></g><defs><clipPath id="SvgjsClipPath1185"><rect width="1000" height="1000" x="0" y="0" rx="500" ry="500"></rect></clipPath></defs></svg> 