<svg id="Layer_1" data-name="Layer 1" xmlns="http://www.w3.org/2000/svg" viewBox="0 0 100 100"><defs><style>.cls-1{fill:#393738;}.cls-10,.cls-11,.cls-2,.cls-3,.cls-4,.cls-5,.cls-6,.cls-7,.cls-8,.cls-9{fill:none;stroke-width:0.3px;}.cls-2{stroke:#ddded9;}.cls-3{stroke:#5c5c5d;}.cls-4{stroke:#a3a29f;}.cls-5{stroke:#7d7e7b;}.cls-6{stroke:#5b5b5b;}.cls-7{stroke:#e0e0d8;}.cls-8{stroke:#575858;}.cls-9{stroke:#9e9d9b;}.cls-10{stroke:#777874;}.cls-11{stroke:#9d9e98;}.cls-12{fill:#ddded9;}.cls-13{fill:#e0e0d8;}.cls-14{fill:#9d9e98;}</style></defs><circle class="cls-1" cx="50" cy="50" r="50"/><path class="cls-2" d="M43.45,28v1.55c2.66,0,2.7-2.47,2.17-5s-.46-4.48,2.47-4,4.43-.45,7.11.31v6.8c-3-1.14-7.09,1.63-4.71,4.4s6,.36,6.26-2.54c2-.25,5.65,4.37,7.19,2.55s3.4-6,5.1-3.4,5.54,3.09,4,6-3.39,4.21-2.28,8,4.13,3.39,7.94,3.19c.6,2.86.19,6,.31,9-1.94.69-7-.75-7.7,1.57s-1.87,5.67-1.47,7.91,4.69,3,2.45,5.13a62.74,62.74,0,0,0-4.72,4.87c-1.86-1.31-4-4.9-6.8-3.4s-7.23-.37-8,3.09c-.19,1.35.63,4.31-.31,5.25-1.71,1.71-6.77-.64-9,.31V73.72c-1-2.15-4.84-2.57-6.51-4s-5.7,4.45-6.7,2.37-5.41-4.51-2.48-6.34,1.5-3.62.45-6.78-3.05-4.89-7-3.8V45.89c2.35.87,6.67-.42,6.78-2.81s4.54-4.61,2.42-6.69S27.11,33,29.46,31s2.92-4.52,5.11-1.85,4,1.62,6.72.69a3,3,0,0,0,.62-.92c.19-.51.26-1-.31-1.24-2.28.33-4.5,2.16-6.11-.39s-3.8-1.88-5.41,0a41.29,41.29,0,0,0-3.95,5c-1.43,2.22,2.7,3.47,2.79,5.26s-2.34,4-3,6-6.4-.57-6.59,2.37A85.51,85.51,0,0,0,19,54.55c.1,3.07,3.89,2.49,6.18,2.47a55.26,55.26,0,0,0,2.48,6.49c-5,2.06-2.4,5.19-.08,8.43s6.13,3.14,8.42-.7c1.27,1.79,6.69,1.16,5.88,4.33s1,6.78,4.33,5.88,7.24,1.77,8.34-1.86c.26-1.52-.48-3.49,0-4.94,1.33-.73,6.3-2.41,8.33-1.83s3.33,5,6,2.83,2.55-2.78,5-5,1.06-4.06-1.08-5.87.38-5.58.39-7.81c2.28-.12,7.08,1,7.42-2.16s.82-5.93-.08-8.9S75,44.9,72.83,44.35c-.81-2.58-1.69-5.92.85-7.81s2-4.8-.31-6.34-3-4.15-5.8-4.71S64.36,30.06,62,30.43a7.68,7.68,0,0,0-5.57-2.78c-.24-2.09,1-8.15-1.79-8.72s-7.58-.78-10,0S43.45,26,43.45,28m11.44,1.55c.82,3-4,3.11-3.09,0Z"/><path class="cls-3" d="M43.45,29.51a4.73,4.73,0,0,0-2.16.3c-2.67.93-4.54,2-6.72-.69S31.82,29,29.46,31s-1.19,3.34.93,5.42S28.09,40.7,28,43.08s-4.43,3.68-6.78,2.81v9.28c4-1.09,6,.65,7,3.8s2.47,5-.45,6.78,1.47,4.27,2.48,6.34,5-3.8,6.7-2.37,5.51,1.85,6.51,4c.73,1.56.1,3.77.31,5.56h8.66A20.86,20.86,0,0,1,52.73,74c.81-3.46,5.26-1.61,8-3.09s4.94,2.09,6.8,3.4a62.74,62.74,0,0,1,4.72-4.87c2.24-2.1-2.06-2.88-2.45-5.13s.79-5.6,1.47-7.91,5.76-.88,7.7-1.57c-.12-3,.29-6.11-.31-9-3.81.2-6.83.62-7.94-3.19s.74-5.11,2.28-8-2.3-3.38-4-6-3.57,1.57-5.1,3.4-5.24-2.8-7.19-2.55c-.23,2.9-3.87,5.31-6.26,2.54s1.75-5.54,4.71-4.4v-6.8c-2.68-.76-4.18.14-7.11-.31s-3,1.54-2.47,4,.49,4.91-2.17,5m9.28,8c9.74,1.59,14.53,14.45,8.06,22s-18.45,6.7-22.88-2.83S42,35.8,52.73,37.54Z"/><path class="cls-4" d="M41.91,28.89c.33-.25.62.36.93.31a2.36,2.36,0,0,0-.31-1.55c-.3,0-.63,0-.93,0C42.17,27.88,42.1,28.38,41.91,28.89Z"/><path class="cls-5" d="M41.91,28.89a3,3,0,0,1-.62.92,4.73,4.73,0,0,1,2.16-.3V28c-.12-.2-.73-.29-.92-.31a2.36,2.36,0,0,1,.31,1.55C42.53,29.25,42.24,28.64,41.91,28.89Z"/><path class="cls-6" d="M54.89,29.51H51.8C50.84,32.62,55.71,32.47,54.89,29.51Z"/><path class="cls-7" d="M52.73,37.54C42,35.8,33.48,47.16,37.91,56.69s16.42,10.36,22.88,2.83,1.68-20.39-8.06-22m-.31,1.86c8.86,1.07,13.08,12,7.81,18.94S43.45,64.6,40,56.19,42.61,38.21,52.42,39.4Z"/><path class="cls-8" d="M52.42,39.4c-9.81-1.19-16,8.38-12.46,16.79s15,9.08,20.27,2.15S61.28,40.47,52.42,39.4Z"/><path class="cls-9" d="M52.42,79.28H43.76c-.21-1.79.42-4-.31-5.56v5.87C45.65,78.64,50.71,81,52.42,79.28Z"/><path class="cls-10" d="M52.42,79.28c.94-.94.12-3.9.31-5.25A20.86,20.86,0,0,0,52.42,79.28Z"/><path class="cls-11" d="M54.58,79.59c.43-1.4-.29-3.76,0-4.94C54.1,76.1,54.84,78.07,54.58,79.59Z"/><path class="cls-12" d="M43.45,28v1.55c2.66,0,2.7-2.47,2.17-5s-.46-4.48,2.47-4,4.43-.45,7.11.31v6.8c-3-1.14-7.09,1.63-4.71,4.4s6,.36,6.26-2.54c2-.25,5.65,4.37,7.19,2.55s3.4-6,5.1-3.4,5.54,3.09,4,6-3.39,4.21-2.28,8,4.13,3.39,7.94,3.19c.6,2.86.19,6,.31,9-1.94.69-7-.75-7.7,1.57s-1.87,5.67-1.47,7.91,4.69,3,2.45,5.13a62.74,62.74,0,0,0-4.72,4.87c-1.86-1.31-4-4.9-6.8-3.4s-7.23-.37-8,3.09c-.19,1.35.63,4.31-.31,5.25-1.71,1.71-6.77-.64-9,.31V73.72c-1-2.15-4.84-2.57-6.51-4s-5.7,4.45-6.7,2.37-5.41-4.51-2.48-6.34,1.5-3.62.45-6.78-3.05-4.89-7-3.8V45.89c2.35.87,6.67-.42,6.78-2.81s4.54-4.61,2.42-6.69S27.11,33,29.46,31s2.92-4.52,5.11-1.85,6.88,1.24,9.56.31a3.6,3.6,0,0,0,.66-1,1.2,1.2,0,0,0-.51-1.51c-2.28.33-7.18,2.9-8.79.35s-3.8-1.88-5.41,0a41.29,41.29,0,0,0-3.95,5c-1.43,2.22,2.7,3.47,2.79,5.26s-2.34,4-3,6-6.4-.57-6.59,2.37A85.51,85.51,0,0,0,19,54.55c.1,3.07,3.89,2.49,6.18,2.47a55.26,55.26,0,0,0,2.48,6.49c-5,2.06-2.4,5.19-.08,8.43s6.13,3.14,8.42-.7c1.27,1.79,6.69,1.16,5.88,4.33s1,6.78,4.33,5.88,7.24,1.77,8.34-1.86c.26-1.52-.48-3.49,0-4.94,1.33-.73,6.3-2.41,8.33-1.83s3.33,5,6,2.83,2.55-2.78,5-5,1.06-4.06-1.08-5.87.38-5.58.39-7.81c2.28-.12,7.08,1,7.42-2.16s.82-5.93-.08-8.9S75,44.9,72.83,44.35c-.81-2.58-1.69-5.92.85-7.81s2-4.8-.31-6.34-3-4.15-5.8-4.71S64.36,30.06,62,30.43a7.68,7.68,0,0,0-5.57-2.78c-.24-2.09,1-8.15-1.79-8.72s-7.58-.78-10,0S43.45,26,43.45,28m11.44,1.55c.82,3-4,3.11-3.09,0Z"/><path class="cls-1" d="M43.45,29.51a4.73,4.73,0,0,0-2.16.3c-2.67.93-4.54,2-6.72-.69S31.82,29,29.46,31s-1.19,3.34.93,5.42S28.09,40.7,28,43.08s-4.43,3.68-6.78,2.81v9.28c4-1.09,6,.65,7,3.8s2.47,5-.45,6.78,1.47,4.27,2.48,6.34,5-3.8,6.7-2.37,5.51,1.85,6.51,4c.73,1.56.1,3.77.31,5.56h8.66A20.86,20.86,0,0,1,52.73,74c.81-3.46,5.26-1.61,8-3.09s4.94,2.09,6.8,3.4a62.74,62.74,0,0,1,4.72-4.87c2.24-2.1-2.06-2.88-2.45-5.13s.79-5.6,1.47-7.91,5.76-.88,7.7-1.57c-.12-3,.29-6.11-.31-9-3.81.2-6.83.62-7.94-3.19s.74-5.11,2.28-8-2.3-3.38-4-6-3.57,1.57-5.1,3.4-5.24-2.8-7.19-2.55c-.23,2.9-3.87,5.31-6.26,2.54s1.75-5.54,4.71-4.4v-6.8c-2.68-.76-4.18.14-7.11-.31s-3,1.54-2.47,4,.49,4.91-2.17,5m9.28,8c9.74,1.59,14.53,14.45,8.06,22s-18.45,6.7-22.88-2.83S42,35.8,52.73,37.54Z"/><path class="cls-1" d="M54.89,29.51H51.8C50.84,32.62,55.71,32.47,54.89,29.51Z"/><path class="cls-13" d="M52.73,37.54C42,35.8,33.48,47.16,37.91,56.69s16.42,10.36,22.88,2.83,1.68-20.39-8.06-22m-.31,1.86c8.86,1.07,13.08,12,7.81,18.94S43.45,64.6,40,56.19,42.61,38.21,52.42,39.4Z"/><path class="cls-1" d="M52.42,39.4c-9.81-1.19-16,8.38-12.46,16.79s15,9.08,20.27,2.15S61.28,40.47,52.42,39.4Z"/><path class="cls-1" d="M52.42,79.28H43.76c-.21-1.79.42-4-.31-5.56v5.87C45.65,78.64,50.71,81,52.42,79.28Z"/><path class="cls-1" d="M52.42,79.28c.94-.94.12-3.9.31-5.25A20.86,20.86,0,0,0,52.42,79.28Z"/><path class="cls-14" d="M54.58,79.59c.43-1.4-.29-3.76,0-4.94C54.1,76.1,54.84,78.07,54.58,79.59Z"/></svg>