<svg id="Layer_1" data-name="Layer 1" xmlns="http://www.w3.org/2000/svg" viewBox="0 0 100 100"><defs><style>.cls-1{fill:#393738;}.cls-2{fill:#cac8c9;}.cls-3{fill:#fff;}</style></defs><path class="cls-1" d="M46.45.07C59.23-.52,70.85,2.69,81,10.73c.63.51,1.26,1,1.86,1.57S84,13.39,84.6,14s1.15,1.15,1.7,1.74,1.1,1.21,1.62,1.83,1,1.26,1.53,1.9,1,1.31,1.43,2,.9,1.35,1.33,2,.84,1.39,1.23,2.1.77,1.43,1.13,2.16.7,1.47,1,2.22.62,1.5.91,2.26.55,1.53.8,2.3.48,1.56.69,2.34.39,1.58.57,2.37.32,1.6.45,2.4.24,1.61.34,2.41.16,1.63.21,2.45.08,1.63.09,2.44,0,1.64,0,2.46-.08,1.63-.15,2.44-.16,1.63-.27,2.44-.24,1.61-.39,2.42-.31,1.6-.5,2.4-.39,1.58-.62,2.37S97.22,65,97,65.76s-.54,1.54-.84,2.3-.62,1.51-1,2.26-.7,1.48-1.07,2.2S93.31,74,92.9,74.67s-.83,1.41-1.27,2.09-.91,1.37-1.38,2-1,1.32-1.48,2c-8.9,11.06-21.23,17-35.2,18.49l-.15,0C41,100.51,27.08,95.45,17.69,87.41c-.61-.52-1.21-1.06-1.8-1.61s-1.15-1.12-1.71-1.7-1.1-1.18-1.63-1.79-1-1.23-1.54-1.86-1-1.28-1.44-1.93-.92-1.33-1.35-2S7.36,75.15,7,74.45,6.18,73,5.82,72.32s-.72-1.44-1.05-2.17-.64-1.48-.93-2.23S3.27,66.41,3,65.65s-.5-1.53-.72-2.31S1.88,61.79,1.7,61s-.34-1.57-.48-2.36S1,57.05.85,56.25s-.18-1.6-.25-2.4a49.92,49.92,0,0,1,12-37c.53-.61,1.08-1.21,1.64-1.79S15.38,14,16,13.39s1.19-1.09,1.8-1.61,1.25-1,1.89-1.53,1.29-1,1.95-1.43,1.34-.91,2-1.34S25,6.64,25.72,6.24s1.42-.77,2.14-1.13,1.45-.7,2.19-1,1.49-.63,2.25-.92,1.52-.55,2.28-.8,1.55-.48,2.33-.69,1.56-.41,2.35-.58S40.84.77,41.64.64,43.23.39,44,.29,45.64.12,46.45.07Z"/><path class="cls-2" d="M28.61,36.28l.32,1.06a2.6,2.6,0,0,0,.81.28c-.06,2.7-.6,7.3.15,9.77l.51.37c-.51.56-.82.53-1.54.69C28,45.63,28.59,39.46,28.61,36.28Z"/><path class="cls-1" d="M63.36,37.49a35.87,35.87,0,0,1,6.22-.12c.1,3.25.59,7.14-.2,10.28-1.49-.47-7.58.05-9.94-.22A47.26,47.26,0,0,0,63.36,37.49Z"/><path class="cls-1" d="M61.48,28.41c.57.14.86.19,1.19.74a6.33,6.33,0,0,1,.36,3L64,33.42a8.3,8.3,0,0,1-.2,2,4.72,4.72,0,0,0-1.29.22l-.25,1.47C59.8,44.72,56.07,51,51.41,57.38l-.36.06-1.39.35c-1.93-2.13-2.14-6.78-3.76-8.28a5.37,5.37,0,0,0,1.3-2,2.55,2.55,0,0,0,.72-.19c1.14-.56,5.51-8.5,6-10l1.14.71,1.21-2C58.42,34.25,59,30.08,61.48,28.41Z"/><path class="cls-3" d="M61,26.91a2.72,2.72,0,0,1,2.1.38,3.4,3.4,0,0,1,1,2.45A19.73,19.73,0,0,1,64,33.42L63,32.19a6.33,6.33,0,0,0-.36-3c-.33-.55-.62-.6-1.19-.74l-.63-.16C60.63,27.7,60.82,27.47,61,26.91Z"/><path class="cls-3" d="M37.12,35.9a22.93,22.93,0,0,1-1.35-8,1.58,1.58,0,0,0,1,0c.1,3.07,1,5,1.47,7.81A2,2,0,0,0,37.12,35.9Z"/><path class="cls-3" d="M55.21,35.69c1.38-2.8,3.55-6.66,5.79-8.78-.18.56-.37.79-.15,1.34l.63.16C59,30.08,58.42,34.25,56.3,36A1.62,1.62,0,0,0,55.21,35.69Z"/><path class="cls-3" d="M58.07,58.55a10,10,0,0,1,1.52-2,7.67,7.67,0,0,1,5.46-2.34,6.45,6.45,0,0,1,4.63,2.65,5.32,5.32,0,0,0-1.2.24,7.42,7.42,0,0,0-2.32-1.4c-3.23-1.09-5.22,1.49-7.85,2.76Z"/><path class="cls-3" d="M44.76,47.61c.82,0,1.63,0,2.44-.11a5.37,5.37,0,0,1-1.3,2l-1-.84c-5.33-.1-10.75.36-16-.22.72-.16,1-.13,1.54-.69C34.76,47.17,40.29,47.6,44.76,47.61Z"/><path class="cls-3" d="M28.84,62.79a8.57,8.57,0,0,1,2.93-5.59c.18-.14.37-.27.56-.4l.61-.34a6,6,0,0,1,.63-.27,5.67,5.67,0,0,1,.66-.22,5.12,5.12,0,0,1,.68-.14c.22,0,.45-.06.68-.08h.69q.36,0,.69.06a7.2,7.2,0,0,1,4.76,2.71,4.5,4.5,0,0,1,1.05,2.81l-.22.31c-2.64-1.5-3.8-5.35-7.71-4.18a6.89,6.89,0,0,0-4,3.29,14,14,0,0,0-1,2.59c-.2,0-.11,0-.31.11l-.16.09Z"/><path class="cls-3" d="M62.49,35.69a4.72,4.72,0,0,1,1.29-.22c1.14,1,5.57.44,7.25.62.1,2.1.77,11-.44,12.35l-.18.18a1.92,1.92,0,0,1-1-1c.79-3.14.3-7,.2-10.28a35.87,35.87,0,0,0-6.22.12,2.12,2.12,0,0,1-1.12-.33Z"/><path class="cls-3" d="M50.28,58.76a11.09,11.09,0,0,0,1,1.37l-.08.16a9,9,0,0,0-2.31,2.26c-3.36,3.92-6.65,10.14-12.37,10.7a6.44,6.44,0,0,1-2.1-.1,6.85,6.85,0,0,1-4.34-3.08,9.38,9.38,0,0,1-1.23-7.28l.56.75.16-.09c.2-.11.11-.08.31-.11-.14,2.53-.08,5,1.74,7A6,6,0,0,0,36,72.25l.9,0A8.33,8.33,0,0,0,39.63,71C42.81,68.75,48,62.09,50.28,58.76Z"/><path class="cls-3" d="M62.24,37.16a2.12,2.12,0,0,0,1.12.33,47.26,47.26,0,0,1-3.92,9.94c2.36.27,8.45-.25,9.94.22a1.92,1.92,0,0,0,1,1c-3.71-.49-7.82.17-11.6,0-2,3.17-4,7.14-6.56,9.84a1.88,1.88,0,0,0-.84-1.07C56.07,51,59.8,44.72,62.24,37.16Z"/><path class="cls-3" d="M68.48,57.08a5.32,5.32,0,0,1,1.2-.24,8.5,8.5,0,0,1,1.69,4.54c.18,3.12-.14,6.29-2.31,8.72a8.16,8.16,0,0,1-3,2.06,9.37,9.37,0,0,1-4.61-.39c-4.59-1.68-8.24-7.19-10.21-11.48l.08-.16a11.09,11.09,0,0,1-1-1.37l-.62-1,1.39-.35.36-.06a1.88,1.88,0,0,1,.84,1.07l-.54.73.14.17c4.42,5.56,5.52,10.19,13.3,11.74A8.06,8.06,0,0,0,68,69.39c1.93-1.92,2.36-4.38,2.37-7A10.3,10.3,0,0,0,68.48,57.08Z"/><path class="cls-3" d="M35.77,27.87a3,3,0,0,1,1.14-1.69,1.73,1.73,0,0,1,1.55-.05c2.56,1.05,5.59,7.3,7.18,9.75,1.88.17,8,.59,9.57-.19A1.62,1.62,0,0,1,56.3,36l-1.21,2L54,37.35c-2.91,0-22.8-.49-24.21.27a2.6,2.6,0,0,1-.81-.28l-.32-1.06c2.48-.72,5.89-.36,8.51-.38a2,2,0,0,1,1.17-.2c-.47-2.81-1.37-4.74-1.47-7.81A1.58,1.58,0,0,1,35.77,27.87Z"/><path class="cls-1" d="M36.82,27.89c.37-.25.5-.42,1-.34,1.41.24,2.88,2.81,3.59,3.95.91,1.45,1.73,3,2.78,4.35-1.86.11-4.07.43-5.87-.15C37.82,32.89,36.92,31,36.82,27.89Z"/><path class="cls-3" d="M63,32.19,64,33.42a8.3,8.3,0,0,1-.2,2,4.72,4.72,0,0,0-1.29.22A25.72,25.72,0,0,0,63,32.19Z"/><path class="cls-3" d="M54,37.35l1.14.71c-1.43,2.87-6,9.17-6.57,11.42a6.48,6.48,0,0,0,.24,3.92,21.21,21.21,0,0,0,2.29,4l-1.39.35c-1.93-2.13-2.14-6.78-3.76-8.28a5.37,5.37,0,0,0,1.3-2,2.55,2.55,0,0,0,.72-.19C49.06,46.75,53.43,38.81,54,37.35Z"/><path class="cls-1" d="M29.74,37.62c1.41-.76,21.3-.29,24.21-.27-.52,1.46-4.89,9.4-6,10a2.55,2.55,0,0,1-.72.19c-.81.07-1.62.08-2.44.11-4.47,0-10-.44-14.36.15l-.51-.37C29.14,44.92,29.68,40.32,29.74,37.62Z"/></svg>