<?xml version="1.0" encoding="UTF-8"?> <svg xmlns="http://www.w3.org/2000/svg" id="Layer_2" data-name="Layer 2" viewBox="0 0 200.88 174.3"><defs><style> .cls-1 { fill: #f3ede6; } </style></defs><g id="Layer_1-2" data-name="Layer 1"><path class="cls-1" d="m200.66,153.94c-.57-1.04-1.7-.84-2.71-.67-4.43.73-8.86,1.48-13.3,2.15-6.32.97-8,.12-11.04-5.61-7.11-13.39-11.26-27.89-15.85-42.24-2.19-6.84-.97-12.7,3.94-17.96,5.03-5.37,8.22-11.69,9.31-19.06,1.57-10.63-.91-20.67-4.46-30.49-4.74-13.11-11.83-25.06-18.8-37.06-1.55-2.67-2.98-3.31-5.95-2.32-12.77,4.27-25.63,8.25-38.42,12.43-2.02.65-3.82.63-5.81-.02-13-4.23-26.02-8.38-39.02-12.56-1.65-.53-3.23-1.16-4.44.87-8.66,14.6-17.38,29.19-22.09,45.69-4.63,16.2-3.95,31.34,8.63,44.34,3.65,3.78,4.56,8.83,3.02,14.03-4.02,13.58-8.15,27.12-14.2,39.98-5.15,10.96-5.8,11.29-17.6,9.28-3.15-.54-6.3-1.08-9.45-1.59-.94-.15-1.85-.01-2.29.97-.42.93.27,1.55.85,2.05,1.28,1.1,2.56,2.24,3.99,3.13,13.63,8.57,28.84,12.47,44.52,14.9,1.63.25,3.4-.06,5.06-.38,1.47-.28,1.74-1.36.66-2.39-.85-.82-1.9-1.46-2.94-2.05-4.17-2.35-8.44-4.54-12.53-7.01-4.51-2.73-5.66-5.68-4.75-10.9,2.73-15.67,8.9-30.19,15-44.73,2.25-5.36,6.6-8.41,12.18-9.64,5.64-1.24,10.83-3.35,15.35-7.04,8.94-7.32,13.83-17.13,17.16-27.88,2.77-8.96,4.06-18.25,5.91-27.49.43,2.64.85,5.29,1.3,7.92,1.98,11.64,4.26,23.18,10.14,33.63,5.49,9.74,12.7,17.66,24.05,20.12,8.45,1.83,13.68,6.38,16.68,14.47,4.92,13.27,10.65,26.26,13.07,40.34.99,5.72-.15,8.52-5.18,11.54-4.1,2.47-8.38,4.63-12.53,7.03-1.23.71-3.2,1.29-2.94,3,.3,2.01,2.43,1.14,3.77,1.43.95.21,2,.18,2.97.03,8.97-1.48,17.88-3.27,26.43-6.42,7.51-2.77,14.82-5.98,21.11-11.08.83-.67,1.89-1.48,1.2-2.74Zm-114.8-87.62c-2.11,5.69-5.1,10.91-9.47,15.1-6.66,6.38-14.53,9.6-23.8,6.85-9.6-2.85-14.67-9.95-16.68-19.37-2.17-10.18.72-19.55,5.31-29.17,6.16,7.94,14.18,11.76,23.46,13.23,4.33.69,8.66,1.38,12.99,2.08,1.58.26,3.11.69,4.52,1.48,4.56,2.54,5.47,4.96,3.67,9.8Zm39.48,16.67c-5.88-5.11-9.57-11.67-12-19-.83-2.54.46-4.22,2.14-5.76,3.8-3.5,8.78-3.56,13.44-4.36,5.9-1,11.8-1.67,17.4-4.09,5.01-2.16,8.65-5.91,12.58-9.86,5.3,11.26,8.46,22.48,3.5,34.45-6.45,15.58-24.3,19.71-37.06,8.62Z"></path></g></svg> 